<svg width="100" height="34" viewBox="0 0 100 34" fill="none" xmlns="http://www.w3.org/2000/svg">
  <path d="M0 0V6.51891V13.0378V19.6871V33.3768H13.6897V19.6871H27.7705V13.0378H13.6897V6.51891H27.7705V0H0Z" fill="#E0243B"/>
  <path d="M41.5908 6.25815L45.111 19.296H38.0706L41.5908 6.25815ZM36.6365 0L27.6404 33.5072H34.1593L36.3757 25.0326H46.4148L48.6313 33.5072H62.7121L53.716 0H43.2858H39.8959H37.5491H36.6365Z" fill="#E0243B"/>
  <path d="M68.318 0H97.5227C98.8265 0 99.9999 1.04302 99.9999 2.47718V8.99609H88.1355V6.51891H82.9203H77.7052V26.9883H82.9203H88.1355V19.6871H82.9203V13.0378H87.2228H88.1355H99.9999V30.8996C99.9999 32.2034 98.9569 33.3768 97.5227 33.3768H68.318C67.0142 33.3768 65.8408 32.3338 65.8408 30.8996V2.47718C65.8408 1.04302 67.0142 0 68.318 0Z" fill="#E0243B"/>
</svg>
